<?xml version="1.0" standalone="no"?>
<!DOCTYPE svg PUBLIC "-//W3C//DTD SVG 20010904//EN"
 "http://www.w3.org/TR/2001/REC-SVG-20010904/DTD/svg10.dtd">
<svg version="1.0" xmlns="http://www.w3.org/2000/svg"
 width="1280.000000pt" height="736.000000pt" viewBox="0 0 1280.000000 736.000000"
 preserveAspectRatio="xMidYMid meet">
<metadata>
Created by potrace 1.15, written by Peter Selinger 2001-2017
</metadata>
<g transform="translate(0.000000,736.000000) scale(0.100000,-0.100000)"
fill="#000000" stroke="none">
<path d="M450 7315 l0 -45 -70 0 -70 0 0 -40 0 -40 69 0 70 0 3 -37 c2 -21 6
-37 11 -35 4 1 34 2 67 2 l60 0 0 35 0 35 70 0 70 0 0 40 0 40 -70 0 -70 0 0
45 0 45 -70 0 -70 0 0 -45z"/>
<path d="M1517 7353 c-4 -3 -7 -24 -7 -45 l0 -38 -70 0 -70 0 0 -40 0 -40 69
0 70 0 3 -37 3 -38 68 -2 67 -3 0 40 0 40 70 0 70 0 0 40 0 40 -70 0 -70 0 0
45 0 45 -63 0 c-35 0 -67 -3 -70 -7z"/>
<path d="M2580 7315 l0 -45 -70 0 -70 0 0 -40 0 -40 69 0 70 0 3 -37 c2 -21 6
-37 11 -35 4 1 34 2 67 2 l60 0 0 35 0 35 70 0 70 0 0 40 0 39 -67 3 -68 3 -3
43 -3 42 -70 0 -69 0 0 -45z"/>
<path d="M3647 7354 c-4 -4 -7 -25 -7 -46 l0 -38 -65 0 -65 0 0 -40 0 -39 67
-3 67 -3 1 -35 0 -35 70 0 70 0 3 38 3 37 64 0 63 0 4 40 3 39 -69 3 -70 3 0
40 -1 40 -65 3 c-36 2 -69 0 -73 -4z"/>
<path d="M4720 7315 l0 -45 -70 0 -70 0 0 -40 0 -40 70 0 70 0 0 -40 0 -41 68
3 67 3 3 38 3 37 70 0 69 0 0 40 0 40 -70 0 -70 0 0 45 0 45 -70 0 -70 0 0
-45z"/>
<path d="M5790 7315 l0 -45 -70 0 -70 0 0 -40 0 -40 69 0 70 0 3 -37 3 -38 67
0 68 0 0 38 0 37 70 0 70 0 0 43 0 42 -67 0 -68 0 -3 43 -3 42 -70 0 -69 0 0
-45z"/>
<path d="M6870 7315 l0 -45 -70 0 -70 0 0 -40 0 -40 70 0 70 0 0 -35 0 -35 70
0 70 0 0 35 0 35 70 0 70 0 0 45 0 45 -70 0 -70 0 0 40 0 40 -70 0 -70 0 0
-45z"/>
<path d="M7938 7318 l-3 -43 -67 -3 -68 -3 0 -39 0 -39 68 -3 67 -3 3 -35 3
-35 67 1 67 2 3 35 3 36 67 3 67 3 0 39 0 40 -67 -3 -68 -2 0 45 0 46 -69 0
-70 0 -3 -42z"/>
<path d="M9002 7318 l3 -43 -68 -3 -67 -3 0 -39 0 -39 68 -3 67 -3 0 -32 0
-33 72 0 73 0 0 35 0 34 68 3 67 3 0 40 0 40 -67 3 -68 3 0 39 0 40 -76 0 -76
0 4 -42z"/>
<path d="M10070 7315 l0 -45 -70 0 -70 0 0 -40 0 -40 70 0 70 0 0 -37 0 -38
70 3 70 4 0 34 0 34 71 0 70 0 -3 42 -3 42 -67 -3 -68 -2 0 45 0 46 -70 0 -70
0 0 -45z"/>
<path d="M11140 7315 l0 -45 -70 0 -70 0 0 -40 0 -40 70 0 70 0 0 -35 0 -35
70 0 70 0 0 35 0 35 70 0 70 0 0 40 0 40 -70 0 -70 0 0 45 0 45 -70 0 -70 0 0
-45z"/>
<path d="M12210 7315 l0 -45 -65 0 -65 0 0 -40 0 -39 68 -3 67 -3 0 -32 0 -33
72 0 73 0 0 35 0 34 67 3 66 3 0 40 0 40 -67 -3 -66 -3 0 45 0 46 -75 0 -75 0
0 -45z"/>
<path d="M180 7110 l0 -40 64 0 65 0 3 -32 3 -33 68 0 67 0 0 -32 0 -33 69 0
70 0 3 32 c3 28 7 32 33 33 108 4 105 3 105 35 l0 30 70 0 70 0 0 40 0 40 -70
0 -70 0 0 -30 0 -30 -70 0 -70 0 0 -35 0 -36 -67 3 -68 3 -3 33 -3 32 -65 0
-64 0 0 30 0 30 -70 0 -70 0 0 -40z"/>
<path d="M1240 7105 l0 -45 70 0 70 0 0 -30 0 -30 65 0 65 0 0 -30 0 -30 70 0
70 0 0 30 0 30 70 0 70 0 0 35 0 35 70 0 70 0 0 40 0 40 -70 0 -70 0 0 -30 0
-30 -70 0 -70 0 0 -35 0 -35 -64 0 -65 0 -3 33 -3 32 -67 3 c-68 3 -68 3 -68
32 l0 30 -70 0 -70 0 0 -45z"/>
<path d="M2310 7110 l0 -39 68 -3 67 -3 0 -30 1 -30 67 0 67 0 0 -32 0 -33 69
0 70 0 3 32 c2 27 7 33 28 33 117 5 110 3 110 35 l0 30 70 0 70 0 0 40 0 40
-70 0 -70 0 0 -30 0 -30 -70 0 -70 0 0 -35 0 -35 -65 0 -65 0 0 35 0 35 -70 0
-70 0 0 30 0 30 -70 0 -70 0 0 -40z"/>
<path d="M3370 7104 l0 -45 68 3 67 3 3 -32 3 -33 65 0 64 0 0 -30 0 -30 70 0
70 0 0 30 0 29 72 3 72 3 1 30 0 30 68 3 67 3 0 39 0 40 -70 0 -70 0 0 -30 c0
-29 0 -29 -67 -32 l-68 -3 -3 -32 -3 -33 -65 0 -64 0 0 35 0 35 -70 0 -70 0 0
30 0 30 -70 0 -70 0 0 -46z"/>
<path d="M4442 7108 l3 -43 68 -3 c67 -3 67 -3 67 -32 l0 -30 70 0 70 0 0 -30
0 -30 70 0 70 0 0 30 c0 29 0 29 68 32 l67 3 3 33 3 32 70 0 69 0 0 40 0 40
-70 0 -70 0 0 -30 0 -30 -70 0 -70 0 0 -35 0 -35 -70 0 -70 0 0 35 0 35 -70 0
-70 0 0 30 0 30 -71 0 -70 0 3 -42z"/>
<path d="M5520 7110 l0 -39 68 -3 67 -3 0 -30 1 -30 67 0 67 0 0 -32 0 -33 69
0 70 0 3 32 c3 28 7 32 33 33 108 4 105 3 105 35 l0 30 70 0 70 0 0 40 0 40
-70 0 -70 0 0 -30 0 -30 -70 0 -70 0 0 -35 0 -35 -65 0 -65 0 0 35 0 35 -70 0
-70 0 0 30 0 30 -70 0 -70 0 0 -40z"/>
<path d="M6600 7110 l0 -39 68 -3 c65 -3 67 -4 70 -30 3 -27 5 -28 68 -28 l64
0 0 -35 0 -35 69 0 70 0 3 33 3 32 68 3 c67 3 67 3 67 32 l0 30 70 0 70 0 0
40 0 40 -70 0 -70 0 0 -30 0 -30 -70 0 -70 0 0 -30 c0 -26 -4 -30 -27 -31 -16
0 -45 -1 -66 -2 -36 -2 -37 -1 -37 31 l0 32 -70 0 -70 0 0 30 0 30 -70 0 -70
0 0 -40z"/>
<path d="M7660 7110 l0 -40 70 0 70 0 0 -35 0 -36 68 3 67 3 3 -33 3 -32 70 0
69 0 0 36 c0 19 4 33 9 30 5 -3 37 -3 70 1 60 6 62 7 59 32 -3 26 -2 26 70 29
l72 3 0 39 0 40 -75 0 -75 0 0 -30 c0 -29 0 -29 -67 -32 l-68 -3 -3 -32 -3
-33 -65 0 -64 0 0 35 0 35 -70 0 -70 0 0 30 0 30 -70 0 -70 0 0 -40z"/>
<path d="M8730 7110 l0 -40 70 0 70 0 0 -30 c0 -29 0 -29 68 -32 l67 -3 -3
-32 -4 -33 77 0 77 0 -4 33 -3 32 73 3 c73 3 73 3 70 30 -3 27 -2 27 67 32
l70 5 3 38 3 37 -75 0 -76 0 0 -30 0 -30 -71 0 -71 0 4 -30 c4 -28 2 -30 -26
-31 -17 0 -48 -1 -69 -2 -36 -2 -37 -1 -37 31 l0 32 -70 0 -70 0 0 30 0 30
-70 0 -70 0 0 -40z"/>
<path d="M9792 7108 l3 -42 67 3 67 2 3 -33 3 -33 65 0 65 -1 3 -32 3 -32 70
0 69 0 0 36 c0 19 4 33 9 30 5 -3 36 -3 70 0 59 7 61 8 61 35 l0 29 70 0 70 0
0 40 0 40 -70 0 -70 0 0 -30 0 -30 -69 0 -70 0 -3 -32 -3 -33 -67 -3 -68 -3 0
36 0 35 -70 0 -70 0 0 30 0 30 -71 0 -70 0 3 -42z"/>
<path d="M10870 7108 l0 -43 64 3 65 4 3 -34 3 -33 68 0 67 0 0 -32 0 -33 70
0 70 0 0 36 c0 19 4 33 9 30 5 -3 36 -3 70 0 59 7 61 8 61 35 l0 29 70 0 70 0
0 40 0 40 -70 0 -70 0 0 -30 0 -30 -70 0 -70 0 0 -35 0 -35 -70 0 -70 0 0 35
0 35 -65 0 -65 0 0 30 0 30 -70 0 -70 0 0 -42z"/>
<path d="M11940 7110 l0 -40 70 0 70 0 0 -30 0 -30 65 0 65 0 0 -35 0 -35 69
0 70 0 3 33 3 32 71 3 70 3 -4 29 -4 30 70 0 70 0 4 40 4 40 -73 0 -73 0 0
-30 0 -30 -70 0 -70 0 0 -32 0 -33 -65 0 -65 0 0 33 0 32 -70 0 -70 0 0 30 0
30 -70 0 -70 0 0 -40z"/>
<path d="M870 7005 l0 -35 -70 0 -70 0 0 -30 0 -30 -70 0 -70 0 0 -35 0 -35
-70 0 -70 0 0 35 0 35 -65 0 -65 0 0 30 0 30 -70 0 -70 0 0 30 0 30 -70 0 -70
0 0 -40 0 -40 70 0 70 0 0 -35 0 -35 64 0 c63 0 65 -1 68 -27 3 -27 5 -28 70
-31 l67 -3 3 -32 c2 -18 6 -31 11 -29 4 1 34 2 67 2 l60 0 0 30 0 30 70 0 70
0 0 35 0 35 70 0 70 0 0 30 0 30 70 0 70 0 0 45 0 45 -70 0 -70 0 0 -35z"/>
<path d="M1930 7005 l0 -35 -70 0 -70 0 0 -30 c0 -29 0 -29 -67 -32 l-68 -3
-3 -32 -3 -33 -64 0 -64 0 -3 33 -3 32 -67 3 c-68 3 -68 3 -68 32 l0 30 -70 0
-70 0 0 30 0 30 -70 0 -70 0 0 -40 0 -40 70 0 70 0 0 -35 0 -35 70 0 70 0 0
-30 0 -30 64 0 65 0 3 -32 3 -33 68 -3 67 -3 0 36 0 35 70 0 70 0 0 29 c0 27
2 29 60 35 33 4 65 4 70 1 6 -4 10 9 10 29 l0 36 70 0 70 0 0 45 0 45 -70 0
-70 0 0 -35z"/>
<path d="M3000 7005 l0 -35 -70 0 -70 0 0 -30 0 -30 -70 0 -70 0 0 -35 0 -35
-64 0 -65 0 -3 33 -3 32 -67 3 c-68 3 -68 3 -68 32 l0 30 -70 0 -70 0 0 30 0
30 -70 0 -70 0 0 -40 0 -40 70 0 70 0 0 -35 0 -35 70 0 70 0 0 -30 0 -30 65 0
65 0 0 -30 0 -30 70 0 70 0 0 30 0 30 70 0 70 0 0 35 0 35 70 0 70 0 0 30 0
30 70 0 70 0 0 45 0 45 -70 0 -70 0 0 -35z"/>
<path d="M4060 7005 l0 -35 -70 0 -70 0 0 -30 c0 -29 0 -29 -67 -32 l-68 -3
-3 -32 -3 -33 -64 0 -64 0 -3 33 -3 32 -67 3 c-68 3 -68 3 -68 32 l0 30 -70 0
-70 0 0 30 0 30 -70 0 -70 0 0 -40 0 -40 70 0 70 0 0 -35 0 -35 70 0 70 0 0
-30 0 -30 64 0 65 0 3 -32 3 -33 67 0 68 0 0 33 0 32 69 0 70 0 3 33 3 32 70
1 70 1 -3 32 -4 31 71 0 71 0 0 45 0 45 -70 0 -70 0 0 -35z"/>
<path d="M5137 7034 c-4 -4 -7 -20 -7 -36 0 -28 0 -28 -65 -28 l-65 0 0 -30 0
-30 -70 0 -70 0 0 -35 0 -35 -70 0 -70 0 0 35 0 35 -70 0 -70 0 0 30 0 30 -65
0 -65 0 0 30 0 30 -70 0 -70 0 0 -40 0 -40 65 0 65 0 0 -35 0 -35 70 0 70 0 0
-30 0 -30 70 0 70 0 0 -35 0 -36 68 3 67 3 3 33 3 32 70 0 69 0 0 30 c0 32 0
32 100 35 32 1 35 4 38 33 3 31 3 31 69 34 l66 3 0 40 0 40 -64 3 c-36 2 -68
0 -72 -4z"/>
<path d="M6210 7005 l0 -35 -70 0 -70 0 0 -30 0 -30 -70 0 -70 0 0 -35 0 -35
-64 0 -65 0 -3 33 -3 32 -67 3 c-68 3 -68 3 -68 32 l0 30 -70 0 -70 0 0 30 0
30 -70 0 -70 0 0 -40 0 -40 70 0 70 0 0 -35 0 -35 71 0 70 0 -3 -27 c-3 -28
-3 -28 64 -31 l67 -3 3 -32 c2 -18 6 -31 11 -29 4 1 34 2 67 2 l60 0 0 30 0
30 70 0 70 0 0 35 0 35 70 0 70 0 0 30 0 30 70 0 70 0 0 45 0 45 -70 0 -70 0
0 -35z"/>
<path d="M7290 7005 l0 -35 -70 0 -70 0 0 -30 0 -30 -70 0 -70 0 0 -35 0 -35
-65 0 -65 0 0 35 0 35 -70 0 -70 0 0 30 0 30 -70 0 -70 0 0 30 0 30 -70 0 -70
0 0 -40 0 -40 70 0 70 0 0 -36 0 -35 68 3 67 3 3 -32 3 -33 65 0 64 0 0 -30 0
-30 70 0 70 0 0 30 0 30 70 0 70 0 0 35 0 35 70 0 70 0 0 30 0 30 70 0 70 0 0
45 0 45 -70 0 -70 0 0 -35z"/>
<path d="M8350 7005 l0 -35 -70 0 -70 0 0 -30 c0 -29 0 -29 -67 -32 l-68 -3
-3 -32 -3 -33 -65 0 -64 0 0 35 0 35 -70 0 -70 0 0 30 0 30 -65 0 -65 0 0 30
0 30 -72 0 -73 0 0 -40 0 -40 68 0 67 0 0 -35 0 -35 70 0 70 0 0 -30 0 -30 70
0 70 0 0 -32 0 -33 70 3 c70 4 70 4 70 32 0 29 1 29 68 32 l67 3 0 30 1 30 73
3 73 3 -4 29 -5 30 69 0 68 0 0 45 0 45 -70 0 -70 0 0 -35z"/>
<path d="M9420 7005 l0 -35 -70 0 -70 0 0 -30 c0 -29 0 -29 -67 -32 l-68 -3
-3 -32 -3 -33 -65 0 -64 0 0 35 0 35 -70 0 -70 0 0 30 0 30 -70 0 -70 0 0 30
0 30 -70 0 -70 0 0 -40 0 -40 70 0 70 0 0 -30 c0 -29 0 -29 68 -32 l67 -3 3
-33 3 -33 67 2 67 2 -3 -31 -4 -32 77 0 77 0 -4 30 -4 29 70 3 71 3 0 30 1 30
73 3 73 3 -4 29 -5 30 69 0 68 0 0 45 0 45 -70 0 -70 0 0 -35z"/>
<path d="M10487 7034 c-4 -4 -7 -20 -7 -36 0 -28 0 -28 -65 -28 l-65 0 0 -30
0 -30 -70 0 -70 0 0 -35 0 -35 -70 0 -70 0 0 35 0 35 -70 0 -70 0 0 30 0 30
-65 0 -65 0 0 30 0 30 -75 0 -75 0 0 -40 0 -40 69 0 70 0 3 -32 3 -33 68 -3
c67 -3 67 -3 67 -32 l0 -30 70 0 70 0 0 -32 0 -33 70 3 c70 4 70 4 70 32 0 29
1 29 68 32 l67 3 3 33 3 32 70 0 69 0 0 30 c0 29 0 29 68 32 l67 3 0 40 0 40
-65 3 c-36 2 -69 0 -73 -4z"/>
<path d="M11560 7005 l0 -35 -70 0 -70 0 0 -30 0 -30 -70 0 -70 0 0 -35 0 -35
-70 0 -70 0 0 35 0 35 -65 0 -65 0 0 30 0 30 -70 0 -70 0 0 30 0 30 -70 0 -70
0 0 -40 0 -40 70 0 70 0 0 -35 0 -35 65 0 65 0 0 -30 0 -30 70 0 70 0 0 -30 0
-30 70 0 70 0 0 30 0 30 70 0 70 0 0 35 0 35 70 0 70 0 0 30 0 30 70 0 70 0 0
45 0 45 -70 0 -70 0 0 -35z"/>
<path d="M12630 7005 l0 -35 -70 0 -70 0 0 -30 c0 -29 0 -29 -67 -32 l-68 -3
-3 -32 -3 -33 -65 0 -64 0 0 35 0 35 -70 0 -70 0 0 30 0 30 -65 0 -65 0 0 30
0 30 -75 0 -75 0 0 -40 0 -40 69 0 70 0 3 -32 3 -33 68 3 67 3 0 -35 0 -36 65
0 65 0 0 -30 0 -30 73 0 74 0 -5 30 -4 29 73 3 73 3 1 30 0 30 71 3 70 3 -4
29 -4 30 71 0 71 0 0 45 0 45 -70 0 -70 0 0 -35z"/>
<path d="M5143 6722 l-43 -3 0 -45 0 -44 -45 0 -45 0 0 -50 0 -50 45 0 45 0 0
-50 0 -50 50 0 50 0 0 49 0 50 43 3 42 3 3 48 3 47 -45 0 -46 0 0 44 c0 25 -3
46 -7 48 -5 2 -27 2 -50 0z"/>
<path d="M7967 6724 c-4 -4 -7 -27 -7 -51 l0 -43 -45 0 -45 0 0 -50 0 -50 44
0 45 0 3 -47 3 -48 48 -3 47 -3 0 56 0 57 43 -4 42 -3 3 48 3 47 -45 0 -45 0
-3 48 -3 47 -40 3 c-23 2 -44 0 -48 -4z"/>
<path d="M10093 6717 c-2 -4 -3 -24 -1 -45 l3 -37 -48 -3 -48 -3 3 -47 3 -47
45 -5 45 -5 0 -45 0 -45 48 -3 47 -3 0 50 0 51 45 0 45 0 0 50 0 50 -45 0 -45
0 0 44 0 44 -46 4 c-25 2 -48 0 -51 -5z"/>
<path d="M11525 6720 c-4 -6 -5 -27 -3 -48 l3 -37 -48 -3 -48 -3 3 -47 3 -47
45 -5 45 -5 0 -45 0 -45 48 -3 47 -3 0 55 0 54 43 -1 42 -2 3 48 3 47 -45 0
-46 0 0 50 0 50 -44 0 c-25 0 -48 -5 -51 -10z"/>
<path d="M120 6675 l0 -45 -45 0 -45 0 0 -50 0 -50 45 0 45 0 0 -50 0 -50 50
0 50 0 0 50 0 50 45 0 45 0 0 50 0 50 -45 0 -45 0 0 45 0 45 -50 0 -50 0 0
-45z"/>
<path d="M470 6675 l0 -45 -45 0 -45 0 0 -50 0 -50 45 0 45 0 0 -50 0 -50 50
0 50 0 0 50 0 50 50 0 50 0 0 49 0 50 -47 3 -48 3 -3 43 -3 42 -50 0 -49 0 0
-45z"/>
<path d="M830 6675 l0 -45 -50 0 -50 0 0 -50 0 -50 50 0 50 0 0 -50 0 -50 45
0 45 0 0 50 0 50 45 0 45 0 0 50 0 50 -45 0 -45 0 0 45 0 45 -45 0 -45 0 0
-45z"/>
<path d="M1190 6675 l0 -45 -50 0 -50 0 0 -50 0 -50 50 0 50 0 0 -50 0 -50 50
0 50 0 0 49 0 50 48 3 47 3 3 48 3 47 -50 0 -51 0 0 45 0 45 -50 0 -50 0 0
-45z"/>
<path d="M1540 6675 l0 -45 -45 0 -45 0 0 -50 0 -50 45 0 45 0 0 -51 0 -50 48
3 47 3 3 47 3 47 42 3 42 3 3 48 3 47 -45 0 -46 0 0 45 0 45 -50 0 -50 0 0
-45z"/>
<path d="M1890 6676 l0 -45 -47 -3 -48 -3 -3 -47 -3 -48 50 0 51 0 0 -50 0
-50 50 0 50 0 0 50 0 50 50 0 50 0 0 50 0 50 -50 0 -50 0 0 45 0 45 -50 0 -50
0 0 -44z"/>
<path d="M2240 6675 l0 -45 -45 0 -45 0 0 -50 0 -50 44 0 45 0 3 -47 3 -48 48
-3 47 -3 0 50 0 51 45 0 45 0 0 50 0 50 -45 0 -45 0 0 45 0 45 -50 0 -50 0 0
-45z"/>
<path d="M2610 6675 l0 -45 -50 0 -50 0 0 -50 0 -50 50 0 50 0 0 -50 0 -50 50
0 50 0 0 49 0 50 48 3 47 3 3 48 3 47 -50 0 -51 0 0 45 0 45 -50 0 -50 0 0
-45z"/>
<path d="M2960 6675 l0 -45 -45 0 -45 0 0 -50 0 -50 45 0 45 0 0 -50 0 -50 45
0 45 0 0 49 0 50 48 3 47 3 3 47 3 47 -48 3 -48 3 -3 43 -3 42 -45 0 -44 0 0
-45z"/>
<path d="M3320 6676 l0 -45 -47 -3 -48 -3 -3 -47 -3 -48 50 0 51 0 0 -50 0
-50 50 0 50 0 0 50 0 50 50 0 50 0 0 50 0 50 -50 0 -50 0 0 45 0 45 -50 0 -50
0 0 -44z"/>
<path d="M3670 6675 l0 -45 -45 0 -45 0 0 -50 0 -50 45 0 45 0 0 -50 0 -50 50
0 50 0 0 50 0 50 45 0 45 0 0 50 0 50 -45 0 -45 0 0 45 0 45 -50 0 -50 0 0
-45z"/>
<path d="M4030 6675 l0 -45 -45 0 -45 0 0 -50 0 -50 45 0 45 0 0 -50 0 -50 55
0 55 0 0 50 0 50 45 0 45 0 0 50 0 50 -45 0 -45 0 0 45 0 45 -55 0 -55 0 0
-45z"/>
<path d="M4390 6675 l0 -45 -45 0 -45 0 0 -50 0 -50 45 0 45 0 0 -50 0 -50 45
0 45 0 0 49 0 50 46 3 47 3 1 47 1 47 -45 3 -45 3 -3 43 -3 42 -45 0 -44 0 0
-45z"/>
<path d="M4732 6678 l3 -43 -48 -3 -47 -3 0 -50 0 -49 48 0 47 0 0 -47 0 -48
53 -3 52 -3 0 50 0 51 45 0 45 0 0 50 0 50 -45 0 -45 0 0 45 0 45 -56 0 -56 0
4 -42z"/>
<path d="M5460 6675 l0 -45 -50 0 -50 0 0 -50 0 -50 50 0 50 0 0 -50 0 -50 50
0 50 0 0 50 0 50 50 0 50 0 0 50 0 50 -50 0 -50 0 0 45 0 45 -50 0 -50 0 0
-45z"/>
<path d="M5819 6713 c0 -5 -1 -25 -1 -45 l0 -38 -44 0 -44 0 0 -49 0 -50 43
-3 42 -3 1 -45 1 -45 46 -3 47 -3 0 50 0 51 45 0 45 0 0 50 0 50 -45 0 -45 0
0 45 0 45 -45 0 c-25 0 -45 -3 -46 -7z"/>
<path d="M6170 6675 l0 -45 -50 0 -50 0 0 -50 0 -50 50 0 50 0 0 -50 0 -50 50
0 50 0 0 50 0 50 45 0 45 0 0 50 0 50 -45 0 -45 0 0 45 0 45 -50 0 -50 0 0
-45z"/>
<path d="M6540 6675 l0 -45 -45 0 -45 0 0 -50 0 -50 45 0 45 0 0 -50 0 -50 50
0 50 0 0 50 0 50 45 0 45 0 0 50 0 50 -45 0 -45 0 0 45 0 45 -50 0 -50 0 0
-45z"/>
<path d="M6895 6678 l0 -43 -47 -3 -48 -3 0 -50 0 -49 51 0 51 0 -3 -47 -3
-48 49 0 50 0 3 48 3 47 45 0 44 0 0 50 0 50 -45 0 -45 0 0 45 0 45 -52 0 -53
0 0 -42z"/>
<path d="M7250 6675 l0 -45 -45 0 -45 0 0 -50 0 -50 45 0 45 0 0 -51 0 -50 47
3 46 3 0 45 0 45 46 5 46 5 3 47 3 47 -48 3 -48 3 1 43 0 42 -48 0 -48 0 0
-45z"/>
<path d="M7610 6675 l0 -45 -50 0 -50 0 0 -50 0 -50 50 0 50 0 0 -50 0 -50 50
0 50 0 0 49 0 50 48 3 47 3 3 48 3 47 -50 0 -51 0 0 45 0 45 -50 0 -50 0 0
-45z"/>
<path d="M8310 6675 l0 -45 -45 0 -45 0 0 -50 0 -50 44 0 45 0 3 -47 3 -48 53
-3 52 -3 0 50 0 51 45 0 45 0 0 50 0 50 -45 0 -45 0 0 45 0 45 -55 0 -55 0 0
-45z"/>
<path d="M8670 6675 l0 -45 -45 0 -45 0 0 -50 0 -50 45 0 45 0 0 -50 0 -50 45
0 45 0 0 50 0 50 45 0 45 0 0 49 0 50 -42 3 c-43 3 -43 3 -46 46 l-3 42 -45 0
-44 0 0 -45z"/>
<path d="M9030 6675 l0 -45 -50 0 -50 0 0 -50 0 -50 50 0 50 0 0 -50 0 -50 50
0 50 0 0 49 0 50 48 3 47 3 3 48 3 47 -50 0 -51 0 0 45 0 45 -50 0 -50 0 0
-45z"/>
<path d="M9380 6675 l0 -45 -45 0 -45 0 0 -50 0 -50 45 0 45 0 0 -50 0 -50 50
0 50 0 0 50 0 50 45 0 45 0 0 50 0 50 -45 0 -45 0 0 45 0 45 -50 0 -50 0 0
-45z"/>
<path d="M9740 6675 l0 -45 -45 0 -45 0 0 -50 0 -50 45 0 45 0 0 -51 0 -50 53
3 52 3 0 48 0 47 48 0 47 0 0 49 0 50 -47 3 -48 3 3 43 4 42 -56 0 -56 0 0
-45z"/>
<path d="M10460 6675 l0 -45 -50 0 -50 0 0 -50 0 -50 50 0 50 0 0 -50 0 -50
50 0 50 0 0 49 0 50 48 3 47 3 3 48 3 47 -50 0 -51 0 0 45 0 45 -50 0 -50 0 0
-45z"/>
<path d="M10810 6675 l0 -45 -45 0 -45 0 0 -50 0 -50 45 0 45 0 0 -50 0 -50
50 0 50 0 0 49 0 50 43 3 42 3 3 48 3 47 -45 0 -46 0 0 45 0 45 -50 0 -50 0 0
-45z"/>
<path d="M11160 6675 l0 -45 -50 0 -50 0 0 -50 0 -50 50 0 50 0 0 -50 0 -50
50 0 50 0 0 49 0 50 48 3 47 3 3 48 3 47 -50 0 -51 0 0 45 0 45 -50 0 -50 0 0
-45z"/>
<path d="M11880 6675 l0 -45 -45 0 -45 0 0 -50 0 -50 45 0 45 0 0 -51 0 -50
53 3 52 3 0 48 0 47 48 0 47 0 0 50 0 50 -45 0 -45 0 0 45 0 45 -55 0 -55 0 0
-45z"/>
<path d="M12240 6675 l0 -45 -45 0 -45 0 0 -50 0 -50 45 0 45 0 0 -51 0 -50
47 3 47 3 -3 48 -3 47 51 0 51 0 0 49 0 50 -47 3 -48 3 0 43 0 42 -47 0 -48 0
0 -45z"/>
<path d="M12590 6675 l0 -45 -50 0 -50 0 0 -50 0 -50 50 0 50 0 0 -50 0 -50
50 0 50 0 0 49 0 50 48 3 47 3 3 48 3 47 -50 0 -51 0 0 45 0 45 -50 0 -50 0 0
-45z"/>
<path d="M2157 6334 c-4 -4 -7 -47 -7 -96 l0 -88 95 0 96 0 -3 93 -3 92 -85 3
c-47 1 -89 0 -93 -4z"/>
<path d="M10470 6225 l0 -95 90 0 90 0 0 95 0 95 -90 0 -90 0 0 -95z"/>
<path d="M2480 6200 l0 -40 -40 0 -40 0 0 -45 0 -45 -40 0 -40 0 0 -40 0 -41
-77 3 -78 3 -3 38 c-3 36 -4 37 -43 37 -39 0 -39 0 -39 40 l0 40 -40 0 -40 0
0 40 0 40 -50 0 -50 0 0 -45 0 -45 45 0 45 0 0 -45 0 -45 40 0 40 0 0 -40 0
-40 40 0 40 0 0 -80 0 -80 95 0 95 0 0 85 0 85 35 0 c34 0 35 1 35 40 0 40 0
40 39 40 40 0 40 0 43 43 3 42 3 42 46 45 l42 3 0 45 0 44 -50 0 -50 0 0 -40z"/>
<path d="M10800 6186 l0 -46 -45 0 -45 0 0 -40 0 -40 -40 0 -40 0 0 -40 0 -40
-74 0 -75 0 -3 33 c-3 30 -6 32 -45 35 -43 3 -43 3 -43 43 0 39 0 39 -40 39
l-40 0 0 45 0 45 -45 0 -45 0 0 -50 0 -50 40 0 40 0 0 -40 c0 -40 0 -40 39
-40 40 0 40 0 43 -42 3 -43 3 -43 46 -46 l42 -3 0 -80 0 -79 90 0 90 0 0 85 0
85 34 0 c34 0 35 1 38 43 3 42 3 42 46 45 42 3 42 3 42 43 0 39 0 39 41 39
l40 0 -3 48 -3 47 -42 3 -43 3 0 -45z"/>
<path d="M6310 6040 l0 -100 -95 0 -95 0 0 -100 0 -100 -95 0 -95 0 0 -95 0
-95 -95 0 -95 0 0 -100 0 -100 -95 0 -95 0 0 -100 0 -100 -95 0 -95 0 0 -100
0 -100 -95 0 -94 0 -3 -97 -3 -98 -95 -1 -95 -2 -3 -96 -3 -96 -94 0 -95 0 0
-100 0 -100 -95 0 -95 0 0 -100 0 -100 -95 0 -95 0 0 -95 0 -95 -95 0 -95 0 0
-100 0 -100 -95 0 -95 0 0 -105 0 -105 95 0 95 0 0 -95 0 -95 95 0 95 0 0
-100 0 -100 95 0 94 0 3 -97 3 -98 98 -3 97 -3 0 -99 0 -100 93 0 92 0 -3 -95
-3 -95 100 0 101 0 0 -100 0 -100 95 0 95 0 0 -100 0 -100 95 0 95 0 0 -95 0
-95 95 0 95 0 0 -100 0 -100 95 0 95 0 0 -100 0 -100 95 0 95 0 0 -100 0 -100
95 0 94 0 3 -97 3 -98 98 -3 97 -3 0 100 0 100 98 3 97 3 3 98 3 97 89 0 90 0
0 100 0 100 95 0 95 0 0 95 0 95 95 0 95 0 0 100 0 100 100 0 100 0 0 100 0
100 95 0 95 0 0 98 0 97 92 0 93 0 3 98 3 97 94 0 95 0 0 100 0 100 95 0 95 0
0 100 0 100 95 0 94 0 3 98 3 97 93 0 92 0 0 97 0 97 98 3 97 3 0 100 0 100
-97 3 -98 3 0 99 0 100 -95 0 -95 0 0 100 0 100 -95 0 -95 0 0 95 0 95 -95 0
-95 0 0 100 0 100 -95 0 -95 0 0 100 0 100 -95 0 -94 0 -3 98 -3 97 -93 0 -92
0 0 98 0 97 -100 0 -100 0 0 100 0 100 -95 0 -95 0 0 100 0 100 -95 0 -95 0 0
100 0 100 -95 0 -95 0 0 95 0 95 -95 0 -95 0 0 100 0 100 -100 0 -100 0 0
-100z m190 -200 l0 -90 -90 0 -90 0 0 90 0 90 90 0 90 0 0 -90z m-190 -200 l0
-90 -90 0 -90 0 0 90 0 90 90 0 90 0 0 -90z m382 0 l-3 -90 -90 0 -89 0 0 90
0 90 93 0 92 0 -3 -90z m-572 -195 l0 -95 -90 0 -90 0 0 95 0 95 90 0 90 0 0
-95z m380 -5 l0 -100 95 0 95 0 0 -95 0 -95 95 0 95 0 0 -100 0 -100 95 0 94
0 3 -97 3 -98 98 -3 97 -3 0 -99 0 -100 95 0 95 0 0 -95 0 -94 93 -3 92 -3 3
-97 3 -98 94 0 95 0 0 -100 0 -100 95 0 94 0 3 -97 3 -98 93 -3 92 -3 0 -94 0
-95 -95 0 -95 0 0 -100 0 -100 -95 0 -95 0 0 -100 0 -100 -95 0 -95 0 0 -95 0
-95 -95 0 -95 0 0 -100 0 -100 -95 0 -95 0 0 -100 0 -100 -97 0 -98 0 3 -95 3
-95 -95 0 -96 0 0 -100 0 -99 -97 -3 -98 -3 -3 -97 -3 -98 -94 0 -95 0 0 -95
0 -95 -90 0 -90 0 0 95 0 95 -95 0 -95 0 0 100 0 100 -95 0 -95 0 0 95 0 95
75 0 75 0 0 50 0 50 70 0 70 0 0 60 0 60 68 0 67 0 -2 490 -2 490 50 0 51 0
-2 -62 c-1 -35 -2 -255 -1 -490 l1 -428 65 0 65 0 0 -55 0 -55 70 0 70 0 0
-55 0 -55 75 0 75 0 0 395 0 395 385 0 385 0 0 80 0 80 -65 0 -64 0 -3 72 -3
72 -62 -3 -62 -2 -3 73 -3 73 -452 3 -453 2 0 45 0 45 453 2 452 3 5 70 5 70
60 0 60 0 5 70 5 70 60 0 60 0 0 80 0 80 -383 0 -382 0 0 398 0 397 -74 0 -75
0 -3 -52 -3 -53 -65 -1 -65 -2 -3 -55 -3 -56 -67 -3 -67 -3 -3 -487 -2 -488
-46 0 -45 0 1 63 c1 34 1 254 1 490 l-1 427 -65 0 -65 0 0 60 0 60 -70 0 -70
0 0 50 0 50 -75 0 -75 0 0 -395 0 -395 -385 0 -385 0 0 -80 0 -80 65 0 65 0 0
-70 0 -70 65 0 65 0 0 -70 0 -70 448 -2 447 -3 0 -50 0 -50 -447 -3 -448 -2 0
-70 0 -70 -65 0 -65 0 0 -70 0 -70 -65 0 -65 0 0 -75 0 -75 -96 0 -95 0 3 95
3 94 -95 3 -95 3 -3 98 -3 97 -94 0 -95 0 0 95 0 95 95 0 95 0 0 100 0 100 95
0 94 0 3 98 3 97 93 3 92 3 0 94 0 94 98 3 97 3 3 97 3 97 92 3 92 3 3 98 3
97 94 0 95 0 0 100 0 100 95 0 95 0 0 95 0 95 95 0 95 0 0 100 0 100 95 0 95
0 0 100 0 100 90 0 90 0 0 -100z m390 5 l0 -95 -95 0 -95 0 0 95 0 95 95 0 95
0 0 -95z m-960 -200 l0 -95 -90 0 -90 0 0 95 0 95 90 0 90 0 0 -95z m1148 3
l-3 -93 -92 -3 -93 -3 0 96 0 95 95 0 96 0 -3 -92z m190 -195 l-3 -98 -92 -3
-93 -3 0 101 0 100 95 0 96 0 -3 -97z m-1528 -8 l0 -96 -92 3 -93 3 -3 93 -3
92 96 0 95 0 0 -95z m-192 -192 l-3 -98 -90 0 -90 0 -3 84 c-2 46 -1 90 2 98
4 9 30 13 96 13 l91 0 -3 -97z m1912 2 l0 -95 -95 0 -95 0 0 95 0 95 95 0 95
0 0 -95z m-2100 -200 l0 -95 -95 0 -95 0 0 95 0 95 95 0 95 0 0 -95z m2290 0
l0 -95 -95 0 -95 0 0 95 0 95 95 0 95 0 0 -95z m-2480 -200 l0 -95 -95 0 -95
0 0 95 0 95 95 0 95 0 0 -95z m2670 0 l0 -96 -92 3 -93 3 -3 93 -3 92 96 0 95
0 0 -95z m190 -190 l0 -95 -90 0 -90 0 0 95 0 95 90 0 90 0 0 -95z m-3052 -7
l-3 -93 -92 -3 -93 -3 0 96 0 95 95 0 96 0 -3 -92z m-190 -195 l3 -93 -96 0
-95 0 0 95 0 96 93 -3 92 -3 3 -92z m3432 2 l0 -95 -90 0 -90 0 0 95 0 95 90
0 90 0 0 -95z m-2150 15 l0 -60 -65 0 -65 0 0 60 0 60 65 0 65 0 0 -60z m810
-5 l0 -66 -67 3 -68 3 -1 55 c-1 30 0 58 3 63 2 4 33 7 69 7 l64 0 0 -65z
m-670 -130 l0 -65 -65 0 -65 0 0 65 0 65 65 0 65 0 0 -65z m525 -5 l0 -65 -62
-3 -63 -3 0 71 0 71 63 -3 62 -3 0 -65z m-2145 -75 l0 -95 -90 0 -90 0 0 95 0
95 90 0 90 0 0 -95z m3820 0 l0 -95 -90 0 -90 0 0 95 0 95 90 0 90 0 0 -95z
m-4010 -200 l0 -95 -90 0 -90 0 0 95 0 95 90 0 90 0 0 -95z m4208 3 l-3 -93
-92 -3 -93 -3 0 96 0 95 95 0 96 0 -3 -92z m-4015 -200 l-1 -93 -91 -3 -91 -3
0 96 0 95 93 0 92 0 -2 -92z m3817 -3 l0 -95 -90 0 -90 0 0 95 0 95 90 0 90 0
0 -95z m-1670 -75 l0 -70 -65 0 -65 0 0 70 0 70 65 0 65 0 0 -70z m-530 -5 l0
-65 -65 0 -65 0 0 65 0 65 65 0 65 0 0 -65z m-1420 -110 l0 -95 -95 0 -95 0 0
95 0 95 95 0 95 0 0 -95z m3430 -5 l0 -100 -90 0 -90 0 0 100 0 100 90 0 90 0
0 -100z m-1340 -15 l0 -65 -65 0 -65 0 0 65 0 65 65 0 65 0 0 -65z m-810 -5
l0 -60 -65 0 -65 0 0 60 0 60 65 0 65 0 0 -60z m-1090 -175 l0 -95 -95 0 -95
0 0 95 0 95 95 0 95 0 0 -95z m960 -295 l0 -390 -95 0 -94 0 -3 98 -3 97 -92
3 -93 3 0 94 0 95 -95 0 -95 0 0 100 0 100 -100 0 -100 0 0 95 0 95 385 0 385
0 0 -390z m2090 295 l0 -95 -90 0 -90 0 0 95 0 95 90 0 90 0 0 -95z m-2860
-200 l0 -95 -95 0 -95 0 0 95 0 95 95 0 95 0 0 -95z m2670 0 l0 -95 -95 0 -95
0 0 95 0 95 95 0 95 0 0 -95z m-2480 -190 l0 -95 -95 0 -95 0 0 88 c0 49 3 92
7 95 3 4 46 7 95 7 l88 0 0 -95z m2290 -10 l0 -95 -95 0 -95 0 0 95 0 95 95 0
95 0 0 -95z m-2100 -190 l0 -95 -95 0 -95 0 0 88 c0 49 3 92 7 95 3 4 46 7 95
7 l88 0 0 -95z m1910 -5 l0 -90 -95 0 -95 0 0 90 0 90 95 0 95 0 0 -90z
m-1720 -195 l0 -96 -92 3 -93 3 -3 93 -3 92 96 0 95 0 0 -95z m1530 0 l0 -95
-95 0 -95 0 0 95 0 95 95 0 95 0 0 -95z m-1340 -200 l0 -95 -90 0 -90 0 0 95
0 95 90 0 90 0 0 -95z m1150 0 l0 -95 -95 0 -95 0 0 95 0 95 95 0 95 0 0 -95z
m-955 -195 l0 -95 -92 -3 -93 -3 0 101 0 101 93 -3 92 -3 0 -95z m765 -5 l0
-95 -95 0 -95 0 0 95 0 95 95 0 95 0 0 -95z m-580 -190 l0 -95 -90 0 -90 0 0
95 0 95 90 0 90 0 0 -95z m388 -2 l3 -93 -96 0 -95 0 0 95 0 96 93 -3 92 -3 3
-92z m-195 -201 l2 -92 -92 0 -93 0 0 95 0 96 91 -3 90 -3 2 -93z"/>
<path d="M6328 5273 c-3 -36 -5 -38 -40 -41 -36 -3 -38 -5 -38 -37 0 -32 -2
-34 -37 -37 l-38 -3 0 -80 0 -80 35 0 35 0 5 80 5 80 35 0 c33 1 35 3 38 38
l3 37 80 0 79 0 0 -40 0 -40 40 0 40 0 0 40 0 40 -40 0 -40 0 0 40 0 40 -79 0
-80 0 -3 -37z"/>
<path d="M6577 5153 c-4 -3 -7 -39 -7 -80 l0 -73 -40 0 -40 0 0 -40 0 -40 -80
0 -80 0 0 40 0 40 -40 0 -40 0 0 -40 0 -40 40 0 40 0 0 -40 0 -40 80 0 80 0 0
40 0 40 40 0 40 0 0 40 0 40 40 0 40 0 0 80 0 80 -33 0 c-19 0 -37 -3 -40 -7z"/>
<path d="M7689 3913 c-1 -4 0 -23 1 -40 1 -32 0 -33 -39 -33 l-41 0 0 -40 0
-40 -40 0 -40 0 0 -80 0 -80 40 0 40 0 0 -40 0 -40 40 0 40 0 0 -40 0 -40 80
0 80 0 0 40 0 40 40 0 40 0 0 40 0 40 40 0 40 0 0 80 0 80 -40 0 -40 0 0 40
c0 40 0 40 -39 40 -39 0 -40 1 -43 38 l-3 37 -77 3 c-43 2 -78 -1 -79 -5z
m159 -115 c3 -37 4 -38 43 -38 l39 0 0 -80 0 -80 -40 0 -40 0 0 -40 0 -40 -80
0 -80 0 0 40 0 40 -40 0 -40 0 0 80 0 80 40 0 40 0 0 40 0 41 78 -3 77 -3 3
-37z"/>
<path d="M4978 3863 c-3 -36 -5 -38 -40 -41 -37 -3 -38 -4 -38 -43 0 -39 0
-39 -40 -39 l-40 0 0 -80 0 -80 40 0 c39 0 40 -1 40 -35 0 -34 1 -35 40 -35
l40 0 0 -40 0 -40 80 0 80 0 0 40 0 40 40 0 c39 0 40 1 40 35 0 34 1 35 40 35
l40 0 0 80 0 80 -40 0 -40 0 0 40 0 40 -40 0 -40 0 0 40 0 40 -79 0 -80 0 -3
-37z m162 -83 l0 -40 40 0 40 0 0 -75 0 -75 -40 0 -40 0 0 -40 0 -40 -80 0
-80 0 0 40 0 40 -40 0 -40 0 0 75 0 75 40 0 40 0 0 40 0 40 80 0 80 0 0 -40z"/>
<path d="M6330 2460 c0 -39 -1 -40 -35 -40 -34 0 -35 -1 -35 -40 l0 -40 -40 0
-40 0 0 -80 0 -80 40 0 40 0 0 -40 0 -40 41 0 41 0 -4 -37 -3 -38 83 -3 82 -3
0 41 0 40 40 0 40 0 0 40 0 40 40 0 40 0 0 80 0 80 -40 0 -40 0 0 40 0 40 -40
0 -40 0 0 40 0 40 -85 0 -85 0 0 -40z m167 -80 l-5 -40 44 0 44 0 0 -80 0 -80
-40 0 -40 0 0 -40 0 -40 -80 0 -80 0 0 40 0 40 -40 0 -40 0 0 80 0 80 41 0
c39 0 40 1 39 33 -1 17 -2 35 -1 40 1 4 38 7 82 7 l82 0 -6 -40z"/>
<path d="M2490 5890 l0 -40 -40 0 -40 0 0 -45 0 -45 -45 0 -45 0 0 -40 0 -40
-79 0 -80 0 -3 38 c-3 36 -4 37 -43 38 -40 0 -40 1 -43 42 -3 42 -3 42 -43 42
-39 0 -39 0 -39 40 l0 40 -45 0 -45 0 0 -45 0 -45 40 0 40 0 0 -45 0 -45 40 0
40 0 0 -40 0 -40 45 0 45 0 0 -85 0 -85 90 0 90 0 0 90 0 90 45 0 45 0 0 40 0
40 40 0 40 0 0 40 0 40 40 0 40 0 0 50 0 50 -45 0 -45 0 0 -40z"/>
<path d="M10210 5860 l0 -50 40 0 c40 0 40 0 40 -39 0 -40 0 -40 43 -43 42 -3
42 -3 45 -45 l3 -43 45 0 44 0 0 -85 0 -86 88 3 87 3 3 88 3 87 39 0 c40 0 40
0 40 40 l0 40 40 0 40 0 0 45 0 45 45 0 45 0 0 45 0 45 -50 0 -50 0 0 -40 0
-40 -40 0 -40 0 0 -40 c0 -40 0 -40 -39 -40 -40 0 -40 0 -43 -42 l-3 -43 -82
-3 -83 -3 0 41 0 40 -40 0 -40 0 0 40 0 40 -45 0 -45 0 0 45 0 45 -45 0 -45 0
0 -50z"/>
<path d="M50 5770 l0 -100 90 0 90 0 0 -40 0 -40 45 0 45 0 0 -50 0 -50 45 0
45 0 0 -45 0 -45 -180 0 -180 0 0 -40 0 -40 203 0 c111 0 232 -3 269 -7 l68
-6 0 -48 0 -49 -180 0 -180 0 0 -40 0 -40 203 0 c111 0 232 -3 270 -7 l67 -6
0 -43 0 -44 -182 -2 -183 -3 -3 -42 -3 -43 208 0 c114 0 238 -3 276 -7 l67 -6
0 -43 0 -44 45 0 45 0 0 -40 0 -40 -520 0 -520 0 0 -100 0 -100 101 0 100 0
-2 -97 -2 -98 102 -3 101 -3 0 -94 0 -95 100 0 100 0 0 -100 0 -100 100 0 100
0 0 -100 0 -100 570 0 570 0 0 100 0 100 -100 0 -99 0 -3 98 -3 97 -97 3 -98
3 0 94 0 95 100 0 100 0 0 -95 0 -95 95 0 94 0 3 -97 3 -98 103 -3 102 -3 0
561 0 560 -100 0 -100 0 0 100 0 100 -100 0 -100 0 0 95 0 95 -100 0 -99 0 -3
96 -3 96 -95 2 -95 1 -3 98 -3 97 -99 0 -100 0 0 -510 0 -510 -44 0 -45 0 -3
48 -3 47 -42 3 -43 3 0 275 0 274 -45 0 -45 0 0 -185 0 -185 -45 0 -45 0 0
275 0 275 -45 0 -45 0 0 -180 0 -180 -45 0 -45 0 0 275 0 275 -45 0 -45 0 0
-183 0 -182 -45 3 -45 4 0 44 0 44 -45 0 -45 0 0 45 0 45 -40 0 -40 0 0 90 0
90 -100 0 -100 0 0 -100z m1280 -1115 l0 -95 -95 0 -95 0 0 95 0 95 95 0 95 0
0 -95z m210 -190 l0 -95 -105 0 -105 0 0 88 c0 49 3 92 7 95 3 4 51 7 105 7
l98 0 0 -95z"/>
<path d="M4230 5780 l0 -90 -40 0 -40 0 0 -50 0 -50 -45 0 -45 0 0 -45 0 -45
-45 0 -45 0 0 180 0 180 -45 0 -45 0 0 -275 0 -275 -45 0 -45 0 0 185 0 185
-45 0 -45 0 0 -275 0 -275 -45 0 -45 0 0 180 0 180 -45 0 -45 0 0 -275 0 -275
-45 0 -45 0 0 -45 0 -45 -45 0 -45 0 0 505 0 505 -100 0 -100 0 0 -95 0 -95
-100 0 -100 0 0 -100 0 -100 -100 0 -100 0 0 -95 0 -95 -100 0 -100 0 0 -100
0 -100 -100 0 -100 0 0 -560 0 -560 100 0 100 0 0 -100 0 -100 570 0 570 0 0
100 0 100 100 0 100 0 0 100 0 100 100 0 100 0 0 95 0 95 100 0 100 0 0 100 0
100 100 0 100 0 0 100 0 100 -521 0 -520 0 3 43 c3 42 3 42 46 45 l42 3 0 45
0 44 268 0 c148 0 271 2 273 4 3 3 3 23 1 45 l-4 41 -180 0 -179 0 3 48 3 47
268 3 267 2 0 45 0 45 -180 0 -180 0 0 44 0 43 68 6 c37 4 158 7 270 7 l202 0
0 40 0 40 -180 0 -180 0 0 50 0 50 45 0 45 0 0 45 0 45 45 0 45 0 0 40 0 39
88 3 87 3 0 100 0 100 -97 3 -98 3 0 -91z m-890 -1135 l0 -95 -95 0 -95 0 0
95 0 95 95 0 95 0 0 -95z m-200 -190 l0 -95 -100 0 -100 0 0 -100 0 -100 -100
0 -100 0 0 -100 0 -100 -100 0 -100 0 0 100 0 100 100 0 100 0 0 98 0 97 97 0
98 0 3 98 3 97 99 0 100 0 0 -95z"/>
<path d="M8370 5750 l0 -100 90 0 90 0 0 -40 0 -40 40 0 40 0 0 -45 0 -45 45
0 45 0 0 -50 0 -50 -175 0 -175 0 0 -40 0 -40 198 0 c108 0 227 -3 265 -7 l67
-6 0 -43 0 -44 -180 0 -180 0 0 -45 0 -45 270 0 270 0 0 -50 0 -50 -179 0
-179 0 -4 -41 c-2 -22 -2 -42 1 -45 2 -2 125 -4 273 -4 l268 0 0 -44 0 -45 43
-3 c42 -3 42 -3 45 -45 l3 -43 -520 0 -521 0 0 -100 0 -100 100 0 100 0 0
-101 0 -100 100 3 100 3 0 -97 0 -98 100 0 100 0 0 -100 0 -100 100 0 100 0 0
-100 0 -100 570 0 570 0 0 100 0 100 100 0 100 0 0 560 0 560 -100 0 -100 0 0
100 0 100 -100 0 -100 0 0 95 0 95 -100 0 -100 0 0 100 0 100 -100 0 -100 0 0
95 0 95 -100 0 -100 0 0 -505 0 -505 -45 0 -45 0 0 45 0 45 -45 0 -45 0 0 275
0 275 -45 0 -45 0 0 -182 0 -183 -42 1 -43 1 -3 277 -2 277 -41 -3 -41 -3 1
-182 2 -183 -51 0 -50 0 0 275 0 275 -45 0 -45 0 0 -180 0 -180 -45 0 -45 0 0
45 0 45 -40 0 -40 0 0 45 0 45 -45 0 -45 0 0 90 0 90 -95 0 -95 0 0 -100z
m1278 -1112 l-3 -93 -97 -3 -98 -3 0 96 0 95 100 0 101 0 -3 -92z m202 -193
l0 -95 -100 0 -100 0 0 95 0 95 100 0 100 0 0 -95z m198 -199 l3 -96 99 0 100
0 0 -100 0 -100 -100 0 -100 0 0 100 0 100 -100 0 -100 0 0 93 c0 52 2 96 4
98 2 2 46 3 98 2 l93 -1 3 -96z"/>
<path d="M11450 5750 l0 -100 -101 0 -100 0 3 -95 3 -95 -102 0 -103 0 0 -95
0 -95 -100 0 -100 0 0 -100 0 -99 -97 -3 -98 -3 -3 -557 -2 -558 105 0 105 0
0 100 0 100 95 0 95 0 0 95 0 95 100 0 100 0 0 -97 0 -98 -97 0 -98 0 -3 -97
-3 -97 -97 -3 -97 -3 -3 -97 -3 -98 571 0 570 0 0 100 0 100 100 0 100 0 0 95
0 95 100 0 100 0 0 100 0 100 103 0 102 0 0 96 0 96 95 2 95 1 3 97 3 98 -518
2 -518 3 -3 43 -3 42 45 0 46 0 0 44 0 43 68 6 c37 4 160 7 275 7 l207 0 0 40
0 40 -182 2 -183 3 -3 46 -3 46 68 6 c37 4 160 7 273 7 l206 0 -4 40 -4 40
-180 0 -179 0 3 48 3 47 265 5 265 5 3 43 3 42 -180 0 -181 0 0 45 0 45 45 0
45 0 0 50 0 50 45 0 45 0 0 40 0 40 90 0 90 0 0 100 0 100 -100 0 -100 0 0
-90 0 -90 -40 0 -40 0 0 -51 0 -51 -42 4 -43 3 -3 -48 -3 -47 -45 0 -44 0 0
186 0 185 -42 -3 -43 -3 -3 -272 -2 -271 -45 -4 -45 -3 0 182 0 183 -45 0 -45
0 0 -275 0 -275 -45 0 -45 0 0 186 0 185 -40 -3 -41 -3 -1 -225 c0 -124 -3
-249 -5 -277 l-5 -53 -44 0 -44 0 0 -45 0 -45 -45 0 -45 0 0 510 0 510 -100 0
-100 0 0 -100z m200 -1115 l0 -95 -95 0 -95 0 0 95 0 95 95 0 95 0 0 -95z
m-190 -200 l0 -95 -105 0 -105 0 0 95 0 95 105 0 105 0 0 -95z"/>
<path d="M2500 5581 c0 -40 0 -40 -42 -43 -43 -3 -43 -3 -46 -45 -3 -43 -3
-43 -43 -43 l-39 0 0 -45 0 -45 -90 0 -90 0 0 40 c0 40 0 40 -39 40 -40 0 -40
0 -43 43 -3 42 -3 42 -45 45 -43 3 -43 3 -43 43 l0 39 -46 0 -45 0 3 -47 c3
-47 3 -48 40 -51 35 -3 37 -5 40 -40 3 -36 4 -37 46 -40 42 -3 42 -3 42 -43
l0 -39 45 0 44 0 3 -87 3 -88 87 -3 87 -3 3 93 3 93 43 -3 42 -4 0 46 0 46 45
0 45 0 0 40 0 40 40 0 40 0 0 50 0 50 -45 0 -45 0 0 -39z"/>
<path d="M10243 5592 l-43 -3 0 -45 0 -44 45 0 45 0 0 -45 0 -45 40 0 40 0 0
-40 0 -40 45 0 45 0 0 -85 0 -85 95 0 95 0 0 90 0 90 45 0 45 0 0 40 0 40 40
0 40 0 0 45 0 45 40 0 40 0 0 45 0 45 -45 0 -45 0 0 -40 c0 -40 0 -40 -39 -40
-40 0 -40 0 -43 -42 -3 -41 -3 -42 -43 -42 -40 -1 -40 -1 -43 -43 l-3 -43 -90
0 -89 0 0 40 0 40 -40 0 -40 0 0 40 0 40 -40 0 c-40 0 -40 0 -40 39 0 22 -3
41 -7 43 -5 2 -27 2 -50 0z"/>
<path d="M2550 3500 l0 -100 100 0 100 0 0 -100 0 -100 100 0 100 0 0 -100 0
-100 -100 0 -99 0 -3 98 -3 97 -95 1 -95 2 -3 96 -3 96 -99 0 -100 0 0 -555 0
-555 100 0 100 0 0 -100 0 -99 98 -3 97 -3 3 -98 3 -98 99 3 100 3 0 -97 0
-98 100 0 100 0 0 -97 0 -98 100 3 100 3 0 505 0 504 45 0 45 0 0 -45 0 -45
45 0 45 0 0 -275 0 -275 45 0 45 0 0 180 0 180 45 0 45 0 0 -275 0 -275 40 0
40 0 0 185 0 185 50 0 50 0 0 -274 0 -274 41 -4 c22 -2 42 -2 45 1 2 2 4 85 4
183 l0 178 45 0 45 0 0 -45 0 -45 39 0 40 0 3 -47 3 -48 43 -3 42 -3 0 -90 0
-89 95 0 95 0 0 105 0 105 -90 0 -90 0 0 40 0 40 -40 0 -40 0 0 45 0 45 -45 0
-45 0 0 50 0 51 175 -3 175 -3 0 43 0 42 -204 0 c-111 0 -231 3 -265 6 l-61 7
0 43 0 44 180 0 180 0 0 45 0 46 -222 -1 c-123 0 -244 -1 -270 0 l-48 0 0 50
0 50 180 0 180 0 0 43 0 42 -217 -1 c-120 -1 -242 1 -270 3 l-53 5 0 44 0 44
-45 0 -45 0 0 45 0 45 520 0 521 0 -3 98 -3 97 -97 3 -98 3 0 94 0 95 -100 0
-100 0 0 100 0 100 -100 0 -100 0 0 100 0 100 -100 0 -99 0 -3 98 -3 97 -567
3 -568 2 0 -100z m600 -595 l0 -95 -100 0 -100 0 0 95 0 95 100 0 100 0 0 -95z
m198 -192 l-3 -98 -95 0 -95 0 -3 84 c-2 46 -1 90 2 98 4 9 31 13 101 13 l96
0 -3 -97z"/>
<path d="M810 3490 l0 -100 -100 0 -100 0 0 -100 0 -100 -100 0 -100 0 0 -95
0 -94 -101 -3 -102 -3 2 -97 2 -98 -100 0 -101 0 0 -100 0 -100 520 0 520 0 0
-39 0 -40 -47 -3 -47 -3 0 -45 -1 -45 -45 -2 c-25 -1 -148 -2 -273 -2 l-228
-1 3 -42 3 -43 183 -3 182 -2 0 -45 c0 -36 -4 -45 -17 -46 -10 -1 -132 -5
-272 -8 l-254 -6 0 -38 0 -39 181 2 182 1 0 -49 0 -49 -67 -6 c-38 -4 -159 -7
-270 -7 l-203 0 0 -40 0 -40 180 0 180 0 0 -45 0 -45 -45 0 -45 0 0 -50 0 -50
-45 0 -45 0 0 -40 0 -40 -90 0 -90 0 0 -100 0 -100 100 0 100 0 0 90 0 90 40
0 40 0 0 45 0 45 45 0 45 0 0 45 0 45 45 0 45 0 0 -180 0 -180 45 0 45 0 0
275 0 275 45 0 45 0 2 -182 3 -183 40 0 40 0 3 278 2 277 45 0 45 0 0 -186 0
-185 40 3 41 3 1 220 c0 121 3 243 5 272 l5 52 41 3 42 3 3 48 3 47 45 0 44 0
0 -510 0 -510 100 0 100 0 0 95 0 94 98 3 97 3 0 98 0 97 103 0 102 0 0 95 0
95 100 0 100 0 0 100 0 100 100 0 100 0 0 560 0 561 -102 -3 -103 -3 -3 -97
-3 -98 -94 0 -95 0 0 -95 0 -95 -100 0 -100 0 0 95 0 94 98 3 97 3 0 98 0 97
103 0 102 0 0 100 0 100 -570 0 -570 0 0 -100z m740 -595 l0 -95 -105 0 -105
0 0 -95 0 -95 -95 0 -95 0 0 95 0 95 95 0 95 0 0 95 0 95 105 0 105 0 0 -95z"/>
<path d="M10860 3480 l0 -100 100 0 100 0 0 -100 0 -100 -95 0 -94 0 -3 98 -3
97 -102 3 -103 3 0 -561 0 -560 100 0 100 0 0 -100 0 -100 100 0 100 0 0 -95
0 -95 100 0 99 0 3 -97 3 -98 98 -3 97 -3 0 -94 0 -95 100 0 100 0 0 508 0
507 45 -3 45 -4 0 -44 0 -44 45 0 45 0 0 -275 0 -275 45 0 45 0 0 185 0 185
45 0 45 0 2 -277 3 -278 40 0 40 0 3 183 2 182 45 0 45 0 0 -275 0 -275 45 0
45 0 0 180 0 180 45 0 45 0 0 -45 0 -45 45 0 45 0 0 -45 0 -45 40 0 40 0 0
-90 0 -90 100 0 100 0 0 100 0 100 -90 0 -90 0 0 40 0 40 -45 0 -45 0 0 45 0
45 -45 0 -45 0 0 50 0 50 180 0 180 0 0 40 0 40 -202 0 c-112 0 -233 3 -270 7
l-68 6 0 43 0 44 180 0 180 0 0 45 0 45 -202 0 c-112 0 -233 3 -270 7 l-68 6
0 43 0 44 183 2 182 3 0 40 0 40 -272 3 -273 2 0 50 0 50 -45 0 -45 0 0 40 0
40 520 0 520 0 0 100 0 100 -101 0 -100 0 2 98 2 97 -102 3 -101 3 0 94 0 95
-100 0 -100 0 0 100 0 100 -100 0 -100 0 0 100 0 100 -570 0 -570 0 0 -100z
m400 -395 l0 -95 -100 0 -100 0 0 95 0 95 100 0 100 0 0 -95z m208 -197 l-3
-93 -102 -3 -103 -3 0 96 0 95 105 0 106 0 -3 -92z m192 -193 l0 -95 -95 0
-95 0 0 95 0 95 95 0 95 0 0 -95z"/>
<path d="M9120 3470 l0 -100 -100 0 -100 0 0 -95 0 -95 -100 0 -100 0 0 -100
0 -100 -100 0 -99 0 -3 -97 -3 -98 -95 -2 -95 -1 -3 -96 -3 -96 518 -2 518 -3
3 -42 3 -43 -45 0 -46 0 0 -44 0 -43 -67 -6 c-38 -4 -159 -7 -270 -7 l-203 0
0 -42 0 -43 180 3 180 3 0 -49 0 -49 -67 -6 c-38 -4 -159 -7 -270 -7 l-203 0
0 -40 0 -40 180 0 180 0 0 -50 0 -50 -267 -2 -268 -3 0 -40 0 -40 178 -3 177
-2 0 -45 0 -45 -45 0 -45 0 0 -51 0 -51 -42 4 -43 3 -3 -43 -3 -42 -90 0 -90
0 3 -97 3 -98 98 -3 97 -3 0 91 0 90 39 0 40 0 3 47 3 48 43 -3 42 -4 0 51 0
51 45 0 45 0 2 -182 3 -183 40 0 40 0 3 272 2 271 45 4 45 3 0 -182 0 -183 45
0 45 0 0 275 0 275 45 0 45 0 0 -186 0 -185 43 3 42 3 3 278 2 277 45 0 45 0
0 45 0 45 45 0 45 0 0 -510 0 -510 100 0 100 0 0 100 0 100 100 0 100 0 0 95
0 95 100 0 100 0 0 95 0 95 100 0 100 0 0 100 0 100 100 0 100 0 0 560 0 560
-100 0 -100 0 0 100 0 100 -570 0 -570 0 0 -100z m1138 -197 l-3 -98 -97 -3
-98 -3 0 -94 0 -95 -100 0 -100 0 0 -97 0 -98 -100 3 -100 3 0 95 0 94 100 0
100 0 0 98 0 97 97 0 98 0 3 98 3 97 100 0 100 0 -3 -97z m-608 -588 l0 -95
-95 0 -95 0 0 95 0 95 95 0 95 0 0 -95z"/>
<path d="M2160 2105 l0 -85 -45 0 -45 0 0 -40 0 -40 -40 0 -40 0 0 -45 0 -45
-45 0 -45 0 0 -45 0 -45 50 0 50 0 0 40 0 40 40 0 40 0 0 40 c0 40 0 40 39 40
40 0 40 0 43 43 l3 42 89 0 89 0 1 -44 1 -45 40 0 c40 -1 40 -1 43 -43 3 -43
3 -43 43 -43 39 0 39 0 39 -40 l0 -40 45 0 45 0 0 50 0 50 -40 0 -40 0 0 40 0
40 -40 0 -40 0 0 40 0 40 -45 0 -45 0 0 90 0 90 -95 0 -95 0 0 -85z"/>
<path d="M10478 2093 l-3 -88 -47 -3 -48 -3 0 -40 c0 -39 0 -39 -40 -39 l-40
0 0 -40 0 -40 -40 0 -40 0 0 -50 0 -50 45 0 45 0 0 40 0 40 40 0 40 0 0 45 0
45 45 0 45 0 0 40 0 40 90 0 90 0 0 -45 0 -45 40 0 40 0 0 -45 0 -45 40 0 40
0 0 -41 0 -40 48 3 47 3 0 45 0 45 -42 3 c-43 3 -43 3 -43 43 0 39 0 39 -39
39 -40 0 -40 0 -43 43 -3 42 -3 42 -45 45 l-43 3 0 90 0 89 -90 0 -89 0 -3
-87z"/>
<path d="M2170 1795 l0 -85 -45 0 -45 0 0 -39 c0 -40 0 -40 -42 -43 -43 -3
-43 -3 -46 -45 -3 -43 -3 -43 -43 -43 l-39 0 0 -45 0 -45 45 0 45 0 0 40 0 40
45 0 45 0 0 40 0 40 40 0 40 0 0 40 0 40 85 0 85 0 0 -46 0 -46 40 4 40 4 0
-43 0 -43 40 0 40 0 0 -40 0 -40 50 0 50 0 0 45 0 45 -45 0 -45 0 0 45 0 45
-40 0 -40 0 0 40 c0 40 0 40 -40 40 l-39 0 -3 88 -3 87 -87 3 -88 3 0 -86z"/>
<path d="M10480 1775 l0 -85 -45 0 -45 0 0 -40 0 -40 -40 0 c-40 0 -40 0 -40
-39 0 -40 0 -40 -42 -43 l-43 -3 -3 -47 -3 -48 52 0 51 0 -4 40 -4 40 43 0 43
0 0 46 0 46 40 -4 40 -4 0 38 0 38 85 0 85 0 0 -40 c0 -40 0 -40 39 -40 40 0
40 0 43 -42 3 -41 3 -42 43 -42 40 -1 40 -1 43 -43 l3 -43 45 0 44 0 0 50 0
50 -40 0 -40 0 0 40 0 40 -45 0 -45 0 0 46 0 46 -40 -4 -40 -4 0 88 0 88 -90
0 -90 0 0 -85z"/>
<path d="M2170 1481 l0 -80 -42 -3 c-43 -3 -43 -3 -46 -45 -3 -43 -3 -43 -43
-43 -39 0 -39 0 -39 -40 l0 -40 -40 0 -40 0 0 -50 0 -50 45 0 45 0 0 45 0 45
40 0 40 0 0 40 0 40 45 0 c45 0 45 0 45 35 l0 35 75 0 75 0 0 -40 0 -40 40 0
40 0 0 -40 0 -40 45 0 45 0 0 -40 0 -40 45 0 45 0 0 45 0 45 -39 0 c-40 0 -40
0 -43 43 -3 42 -3 42 -45 45 -43 3 -43 3 -43 43 0 38 -1 39 -35 39 l-35 0 0
85 0 85 -90 0 -90 0 0 -79z"/>
<path d="M10480 1465 l0 -85 -40 0 -40 0 0 -40 0 -40 -45 0 -45 0 0 -45 0 -45
-40 0 -40 0 0 -45 0 -45 45 0 45 0 0 40 0 40 45 0 45 0 0 45 0 45 40 0 c39 0
40 1 40 35 l0 35 75 0 75 0 0 -40 0 -40 45 0 45 0 0 -45 0 -45 40 0 40 0 0
-40 0 -40 45 0 45 0 0 50 0 50 -40 0 -40 0 0 40 0 40 -40 0 -40 0 0 40 0 40
-40 0 -40 0 0 90 0 90 -90 0 -90 0 0 -85z"/>
<path d="M2170 1125 l0 -95 90 0 90 0 0 95 0 95 -90 0 -90 0 0 -95z"/>
<path d="M10480 1105 l0 -95 90 0 90 0 0 95 0 95 -90 0 -90 0 0 -95z"/>
<path d="M5873 932 l-43 -3 0 -45 0 -44 -45 0 -45 0 0 -53 0 -53 43 0 42 1 3
-48 3 -48 47 3 47 3 0 40 0 40 45 5 45 5 3 48 3 47 -45 0 -46 0 0 49 c0 28 -3
51 -7 53 -5 2 -27 2 -50 0z"/>
<path d="M130 880 l0 -50 -45 0 -45 0 0 -50 0 -50 45 0 45 0 0 -45 0 -45 50 0
50 0 0 45 0 45 45 0 45 0 0 50 0 50 -45 0 -45 0 0 50 0 50 -50 0 -50 0 0 -50z"/>
<path d="M488 883 l-3 -48 -47 -3 -48 -3 0 -50 0 -49 50 0 50 0 0 -45 0 -45
50 0 50 0 0 44 0 45 47 3 46 3 0 45 0 45 -46 3 -47 3 0 50 0 49 -49 0 -50 0
-3 -47z"/>
<path d="M840 880 l0 -50 -45 0 -45 0 0 -50 0 -50 45 0 45 0 0 -45 0 -45 45 0
45 0 0 44 0 45 48 3 47 3 3 48 3 47 -50 0 -51 0 0 50 0 50 -45 0 -45 0 0 -50z"/>
<path d="M1200 880 l0 -50 -51 0 -50 0 3 -47 3 -48 48 -3 47 -3 0 -45 0 -44
50 0 50 0 0 45 0 45 50 0 50 0 0 50 0 50 -50 0 -50 0 0 50 0 50 -50 0 -50 0 0
-50z"/>
<path d="M1550 880 l0 -50 -45 0 -45 0 0 -50 0 -50 45 0 45 0 0 -45 0 -45 50
0 50 0 0 45 0 45 45 0 45 0 0 50 0 50 -45 0 -45 0 0 50 0 50 -50 0 -50 0 0
-50z"/>
<path d="M1905 883 l0 -48 -48 0 -47 0 0 -50 0 -51 48 1 47 0 1 -45 1 -45 49
0 49 0 3 43 3 42 45 0 44 0 0 50 0 50 -45 0 -45 0 0 50 0 50 -52 0 -53 0 0
-47z"/>
<path d="M2260 880 l0 -50 -45 0 -45 0 0 -50 0 -50 45 0 45 0 0 -45 0 -45 45
0 45 0 0 44 0 45 48 3 47 3 3 48 3 47 -50 0 -51 0 0 50 0 50 -45 0 -45 0 0
-50z"/>
<path d="M2620 880 l0 -50 -51 0 -50 0 3 -47 3 -48 48 -3 47 -3 0 -45 0 -44
50 0 50 0 0 45 0 45 50 0 50 0 0 50 0 50 -50 0 -50 0 0 50 0 50 -50 0 -50 0 0
-50z"/>
<path d="M2970 880 l0 -50 -45 0 -45 0 0 -50 0 -50 45 0 45 0 0 -45 0 -45 50
0 50 0 0 45 0 45 45 0 45 0 0 50 0 50 -45 0 -45 0 0 50 0 50 -50 0 -50 0 0
-50z"/>
<path d="M3330 880 l0 -50 -45 0 -45 0 0 -50 0 -50 44 0 45 0 3 -42 3 -43 48
-3 47 -3 0 45 0 46 50 0 50 0 0 49 0 50 -47 3 -48 3 0 48 0 47 -52 0 -53 0 0
-50z"/>
<path d="M3690 880 l0 -50 -51 0 -50 0 3 -47 3 -48 48 -3 47 -3 0 -45 0 -44
45 0 45 0 0 45 0 45 45 0 45 0 0 50 0 50 -45 0 -45 0 0 50 0 50 -45 0 -45 0 0
-50z"/>
<path d="M4048 883 l-3 -48 -45 -1 -45 -1 0 -48 0 -48 45 -1 45 -1 3 -47 3
-48 50 0 49 0 0 44 0 45 48 3 47 3 3 48 3 47 -50 0 -51 0 0 50 0 50 -49 0 -50
0 -3 -47z"/>
<path d="M4400 880 l0 -50 -45 0 -45 0 0 -50 0 -50 45 0 45 0 0 -45 0 -45 50
0 50 0 0 45 0 45 45 0 45 0 0 50 0 50 -45 0 -45 0 0 50 0 50 -50 0 -50 0 0
-50z"/>
<path d="M4750 880 l0 -50 -51 0 -50 0 3 -47 3 -48 48 -3 47 -3 0 -45 0 -44
50 0 50 0 0 45 0 45 50 0 50 0 0 50 0 50 -50 0 -50 0 0 50 0 50 -50 0 -50 0 0
-50z"/>
<path d="M5110 880 l0 -50 -45 0 -45 0 0 -50 0 -50 45 0 45 0 0 -45 0 -45 50
0 50 0 0 45 0 45 45 0 45 0 0 50 0 50 -45 0 -45 0 0 50 0 50 -50 0 -50 0 0
-50z"/>
<path d="M5470 880 l0 -50 -45 0 -45 0 0 -50 0 -50 44 0 45 0 3 -42 3 -43 48
-3 47 -3 0 45 0 46 50 0 50 0 0 50 0 50 -50 0 -50 0 0 50 0 50 -50 0 -50 0 0
-50z"/>
<path d="M6180 880 l0 -50 -50 0 -50 0 0 -50 0 -50 50 0 50 0 0 -45 0 -45 50
0 50 0 0 44 0 45 48 3 47 3 3 48 3 47 -50 0 -51 0 0 50 0 50 -50 0 -50 0 0
-50z"/>
<path d="M6540 880 l0 -50 -45 0 -45 0 0 -50 0 -50 45 0 45 0 0 -45 0 -45 45
0 45 0 0 45 0 45 51 0 50 0 -3 48 -3 47 -47 3 -48 3 0 50 0 49 -45 0 -45 0 0
-50z"/>
<path d="M6890 881 l0 -50 -47 -3 -48 -3 -3 -47 -3 -48 50 0 51 0 0 -45 0 -45
50 0 50 0 0 45 0 45 51 0 50 0 -3 48 -3 47 -47 3 -48 3 0 50 0 49 -50 0 -50 0
0 -49z"/>
<path d="M7240 880 l0 -50 -45 0 -45 0 0 -50 0 -50 45 0 45 0 0 -45 0 -45 50
0 50 0 0 45 0 45 45 0 45 0 0 50 0 50 -45 0 -45 0 0 50 0 50 -50 0 -50 0 0
-50z"/>
<path d="M7609 923 c0 -5 0 -27 1 -50 l2 -43 -51 0 -51 0 0 -49 0 -50 48 -3
47 -3 0 -43 0 -42 53 0 52 0 0 45 0 45 45 0 45 0 0 50 0 50 -45 0 -45 0 0 50
0 50 -50 0 c-27 0 -50 -3 -51 -7z"/>
<path d="M7960 880 l0 -50 -45 0 -45 0 0 -50 0 -50 45 0 45 0 0 -50 0 -50 44
0 45 0 3 48 3 47 45 1 45 1 0 48 0 48 -45 1 -45 1 -3 53 -3 52 -45 0 -44 0 0
-50z"/>
<path d="M8310 880 l0 -50 -50 0 -50 0 0 -50 0 -50 50 0 50 0 0 -45 0 -45 50
0 50 0 0 45 0 45 50 0 50 0 0 50 0 50 -50 0 -50 0 0 50 0 50 -50 0 -50 0 0
-50z"/>
<path d="M8660 880 l0 -50 -45 0 -45 0 0 -50 0 -50 45 0 45 0 0 -45 0 -45 50
0 50 0 0 45 0 45 45 0 45 0 0 50 0 50 -45 0 -45 0 0 50 0 50 -50 0 -50 0 0
-50z"/>
<path d="M9024 916 c-3 -9 -4 -32 -2 -51 l4 -35 -48 0 -48 0 0 -50 0 -50 45 0
45 0 0 -45 0 -45 55 0 55 0 0 45 0 45 45 0 45 0 0 50 0 50 -47 0 -48 0 0 47 0
48 -48 3 c-35 2 -49 -1 -53 -12z"/>
<path d="M9380 880 l0 -50 -45 0 -45 0 0 -50 0 -50 45 0 45 0 0 -45 0 -45 45
0 45 0 0 45 0 45 45 0 45 0 0 50 0 50 -45 0 -45 0 0 50 0 50 -45 0 -45 0 0
-50z"/>
<path d="M9740 880 l0 -50 -50 0 -50 0 0 -50 0 -50 50 0 50 0 0 -45 0 -45 50
0 50 0 0 45 0 45 51 0 50 0 -3 48 -3 47 -47 3 -48 3 0 50 0 49 -50 0 -50 0 0
-50z"/>
<path d="M10090 881 l0 -51 -45 0 -45 0 0 -50 0 -50 45 0 45 0 0 -44 0 -44 46
-4 c25 -2 47 -1 50 1 2 2 4 24 4 48 l0 43 46 0 45 0 -3 48 -3 47 -42 3 -42 3
-3 47 -3 47 -47 3 -48 3 0 -50z"/>
<path d="M10450 880 l0 -50 -45 0 -45 0 0 -50 0 -50 45 0 45 0 0 -45 0 -45 50
0 50 0 0 45 0 45 50 0 50 0 0 50 0 50 -50 0 -50 0 0 50 0 50 -50 0 -50 0 0
-50z"/>
<path d="M10810 881 l0 -50 -47 -3 -48 -3 -3 -47 -3 -47 48 -3 48 -3 3 -42 3
-43 45 0 44 0 0 45 0 45 45 0 45 0 0 50 0 50 -45 0 -45 0 0 50 0 50 -45 0 -45
0 0 -49z"/>
<path d="M11157 924 c-4 -4 -7 -27 -7 -51 l0 -43 -45 0 -45 0 0 -50 0 -50 45
0 45 0 0 -45 0 -45 53 0 52 0 0 42 0 43 48 3 47 3 0 50 0 49 -51 0 -51 0 3 48
3 47 -45 3 c-24 2 -48 0 -52 -4z"/>
<path d="M11520 881 l0 -51 -45 0 -45 0 0 -50 0 -50 45 0 45 0 0 -51 0 -50 47
3 47 3 0 45 1 45 45 1 45 1 0 48 0 48 -45 1 -45 1 -1 50 -1 50 -46 3 -47 3 0
-50z"/>
<path d="M11880 880 l0 -50 -50 0 -50 0 0 -50 0 -50 50 0 50 0 0 -45 0 -45 50
0 50 0 0 45 0 45 51 0 50 0 -3 48 -3 47 -47 3 -48 3 0 50 0 49 -50 0 -50 0 0
-50z"/>
<path d="M12230 880 l0 -50 -45 0 -45 0 0 -50 0 -50 45 0 45 0 0 -45 0 -45 50
0 50 0 0 45 0 45 45 0 45 0 0 50 0 50 -45 0 -45 0 0 50 0 50 -50 0 -50 0 0
-50z"/>
<path d="M12580 881 l0 -51 -45 0 -45 0 0 -50 0 -50 45 0 45 0 0 -45 0 -45 53
0 52 0 0 42 0 43 48 3 47 3 0 50 0 49 -51 0 -51 0 3 48 3 47 -52 3 -52 3 0
-50z"/>
<path d="M467 604 c-4 -4 -7 -20 -7 -36 0 -28 0 -28 -65 -28 l-65 0 0 -30 0
-30 -70 0 -70 0 0 -30 0 -30 -70 0 -70 0 0 -45 0 -45 70 0 70 0 0 30 0 30 70
0 70 0 0 36 0 35 68 -2 67 -3 3 32 3 32 64 0 64 0 3 -32 3 -32 67 3 67 2 3
-33 3 -33 68 -3 c67 -3 67 -3 67 -32 l0 -30 70 0 70 0 0 40 0 40 -70 0 -70 0
0 35 0 35 -70 0 -70 0 0 30 0 30 -71 0 -71 0 4 33 3 32 -65 3 c-36 2 -69 0
-73 -4z"/>
<path d="M1528 578 l-3 -33 -67 -3 c-68 -3 -68 -3 -68 -32 l0 -30 -70 0 -70 0
0 -30 c0 -29 0 -29 -67 -32 l-68 -3 0 -40 0 -40 70 0 70 0 0 30 1 30 67 3 c67
3 67 3 67 32 l0 30 70 0 70 0 0 30 0 30 70 0 70 0 0 -30 0 -30 70 0 70 0 0
-35 0 -35 65 0 65 0 0 -30 0 -30 75 0 75 0 0 40 0 40 -70 0 -70 0 0 35 0 35
-70 0 -70 0 0 30 0 30 -69 0 -70 0 -3 33 -3 32 -67 3 -67 3 -3 -33z"/>
<path d="M2597 603 c-4 -3 -7 -19 -7 -35 0 -28 0 -28 -65 -28 l-65 0 0 -30 0
-30 -70 0 -70 0 0 -30 c0 -29 0 -29 -67 -32 l-68 -3 -3 -42 -3 -43 70 0 71 0
0 30 0 30 70 0 70 0 0 36 0 35 68 -2 67 -3 3 32 3 32 64 0 64 0 3 -32 c3 -29
6 -32 38 -33 96 -3 99 -4 102 -32 3 -27 5 -28 71 -31 67 -3 67 -3 67 -32 0
-28 3 -30 38 -31 20 0 52 -1 70 -2 31 -2 32 -1 32 41 l0 42 -70 0 -70 0 0 35
0 35 -70 0 -70 0 0 30 0 30 -70 0 -70 0 0 35 0 35 -63 0 c-35 0 -67 -3 -70 -7z"/>
<path d="M3660 575 l0 -35 -70 0 -70 0 0 -30 0 -30 -70 0 -70 0 0 -30 0 -30
-65 0 -65 0 0 -45 0 -45 70 0 70 0 0 35 0 35 65 0 65 0 0 30 0 30 70 0 70 0 0
30 0 30 70 0 70 0 0 -30 c0 -29 0 -29 68 -32 l67 -3 3 -32 3 -33 65 0 64 0 0
-30 0 -30 73 0 73 0 -4 40 -4 40 -64 0 -64 0 0 35 0 35 -70 0 -70 0 0 30 0 30
-70 0 -70 0 0 35 0 35 -70 0 -70 0 0 -35z"/>
<path d="M4730 575 l0 -35 -70 0 -70 0 0 -30 0 -30 -71 0 -71 0 4 -30 5 -30
-69 0 -68 0 0 -45 0 -45 70 0 70 0 0 36 0 35 68 -2 67 -3 3 32 3 32 65 0 64 0
0 30 0 30 70 0 70 0 0 -30 0 -30 70 0 70 0 0 -35 0 -35 70 0 70 0 0 -30 0 -30
70 0 70 0 0 40 0 40 -70 0 -70 0 0 35 0 35 -70 0 -70 0 0 30 0 30 -70 0 -70 0
0 35 0 35 -70 0 -70 0 0 -35z"/>
<path d="M5810 575 l0 -35 -70 0 -70 0 0 -30 0 -30 -70 0 -70 0 0 -30 c0 -29
0 -29 -67 -32 l-68 -3 0 -40 0 -40 68 -3 67 -3 0 31 c0 28 3 30 38 31 20 1 52
0 70 -1 31 -1 32 0 32 35 l0 36 68 -2 67 -3 3 32 3 32 70 0 69 0 0 -30 c0 -29
0 -29 68 -32 l67 -3 0 -30 1 -30 67 -3 c67 -3 67 -3 67 -32 l0 -30 70 0 70 0
0 40 0 40 -64 0 -65 0 -3 33 -3 32 -67 3 c-68 3 -68 3 -68 32 l0 30 -69 0 -70
0 -3 33 -3 32 -67 3 -68 3 0 -36z"/>
<path d="M7934 601 c-2 -2 -4 -17 -4 -33 l0 -28 -70 0 -70 0 0 -30 0 -30 -65
0 -65 0 0 -35 0 -35 -70 0 -70 0 0 -40 0 -40 70 0 70 0 0 30 0 30 70 0 70 0 0
30 0 30 65 0 65 0 0 35 0 35 70 0 70 0 0 -35 0 -35 70 0 70 0 0 -30 0 -30 70
0 70 0 0 -35 0 -35 70 0 70 0 0 45 0 45 -70 0 -70 0 0 30 0 30 -70 0 -70 0 0
35 0 35 -70 0 -70 0 0 29 c0 29 -1 29 -66 33 -36 1 -68 1 -70 -1z"/>
<path d="M11134 601 c-2 -2 -4 -17 -4 -33 0 -28 0 -28 -65 -28 l-65 0 0 -30 0
-30 -70 0 -70 0 0 -35 0 -35 -70 0 -70 0 0 -40 0 -40 70 0 70 0 0 30 0 30 70
0 70 0 0 30 0 30 70 0 70 0 0 35 0 35 64 0 65 0 3 -32 3 -33 68 -3 c67 -3 67
-3 67 -32 l0 -30 70 0 70 0 0 -35 0 -35 70 0 70 0 0 45 0 45 -70 0 -70 0 0 30
c0 29 0 29 -67 32 l-68 3 -3 33 -3 32 -70 0 -69 0 0 29 c0 29 -1 29 -66 33
-36 1 -68 1 -70 -1z"/>
<path d="M6870 570 l0 -30 -70 0 -70 0 0 -36 0 -35 -67 3 -68 3 -3 -32 -3 -33
-65 0 -64 0 0 -40 0 -40 70 0 70 0 0 30 0 30 65 0 65 0 0 30 0 30 70 0 70 0 0
35 0 35 70 0 70 0 0 -35 0 -35 70 0 70 0 0 -30 0 -30 70 0 70 0 0 -35 0 -35
71 0 70 0 -3 43 -3 42 -67 3 c-68 3 -68 3 -68 32 l0 30 -70 0 -70 0 0 29 c0
29 -1 29 -70 36 -69 7 -70 7 -70 36 l0 29 -70 0 -70 0 0 -30z"/>
<path d="M9000 564 l0 -35 -67 3 -68 3 -3 -33 -3 -33 -67 2 -66 2 -1 -29 c0
-29 0 -29 -67 -32 l-68 -3 0 -39 0 -40 70 0 70 0 0 30 0 30 70 0 70 0 0 30 0
30 65 0 65 0 0 35 0 35 70 0 70 0 0 -35 0 -35 70 0 70 0 0 -30 0 -30 70 0 70
0 0 -35 0 -35 71 0 70 0 -3 43 -3 42 -67 3 c-68 3 -68 3 -68 32 l0 30 -70 0
-70 0 0 29 c0 29 -1 29 -70 36 -69 7 -70 7 -70 36 l0 29 -70 0 -70 0 0 -36z"/>
<path d="M10060 570 c0 -29 0 -29 -67 -32 -67 -3 -68 -3 -68 -30 1 -28 0 -28
-67 -28 l-68 0 0 -35 0 -35 -70 0 -70 0 0 -40 0 -40 70 0 70 0 0 30 0 30 70 0
70 0 0 30 c0 29 0 29 68 32 l67 3 3 33 3 32 65 0 64 0 0 -35 0 -35 70 0 70 0
0 -30 0 -30 70 0 70 0 0 -35 0 -35 70 0 70 0 0 45 0 45 -70 0 -70 0 0 30 0 30
-70 0 -70 0 0 35 0 35 -70 0 -70 0 0 30 0 30 -70 0 -70 0 0 -30z"/>
<path d="M12210 570 c0 -29 0 -29 -67 -32 l-68 -3 -3 -34 -3 -33 -65 7 -64 7
0 -36 0 -36 -70 0 -70 0 0 -40 0 -40 70 0 70 0 0 30 0 30 70 0 70 0 0 30 0 30
65 0 65 0 0 35 0 35 70 0 70 0 0 -35 0 -35 70 0 70 0 0 -30 0 -30 70 0 70 0 0
-35 0 -35 71 0 70 0 -3 43 -3 42 -67 3 c-68 3 -68 3 -68 32 l0 30 -70 0 -70 0
0 29 c0 29 -1 29 -70 36 -69 7 -70 7 -70 36 l0 29 -70 0 -70 0 0 -30z"/>
<path d="M467 424 c-4 -4 -7 -20 -7 -36 0 -28 0 -28 -65 -28 l-65 0 0 -30 0
-30 -70 0 -70 0 0 -45 0 -45 70 0 70 0 0 30 c0 27 3 30 33 31 105 3 102 2 105
37 l3 32 64 0 64 0 3 -32 3 -33 68 -3 c67 -3 67 -3 67 -32 l0 -30 70 0 70 0 0
45 0 45 -70 0 -70 0 0 30 0 30 -71 0 -71 0 4 33 3 32 -65 3 c-36 2 -69 0 -73
-4z"/>
<path d="M1530 395 l0 -35 -70 0 -70 0 0 -30 0 -30 -71 0 -70 0 3 -42 3 -43
67 -3 67 -3 3 33 3 33 65 1 65 1 3 32 3 31 70 0 69 0 0 -36 c0 -20 4 -33 10
-29 5 3 37 3 70 -1 58 -6 60 -8 60 -36 l0 -29 68 3 67 3 0 40 0 40 -67 3 c-68
3 -68 3 -68 32 l0 30 -69 0 -70 0 -3 33 -3 32 -67 3 -68 3 0 -36z"/>
<path d="M2597 423 c-4 -3 -7 -19 -7 -35 0 -28 0 -28 -65 -28 l-65 0 0 -30 0
-30 -70 0 -70 0 0 -45 0 -45 70 0 70 0 0 30 0 30 70 0 70 0 0 35 0 35 64 0 65
0 3 -32 3 -33 68 -3 c67 -3 67 -3 67 -32 l0 -30 70 0 70 0 0 46 c0 45 0 46
-32 44 -18 -1 -50 -2 -70 -1 -35 1 -38 3 -38 31 l0 30 -70 0 -70 0 0 35 0 35
-63 0 c-35 0 -67 -3 -70 -7z"/>
<path d="M3660 395 l0 -35 -70 0 -70 0 0 -30 0 -30 -71 0 -70 0 3 -42 3 -43
67 -3 67 -3 3 33 3 33 68 -3 67 -3 0 35 0 36 70 0 70 0 0 -35 0 -35 70 0 70 0
0 -30 0 -30 71 0 70 0 -3 43 -3 42 -67 3 c-68 3 -68 3 -68 32 l0 30 -69 0 -70
0 -3 33 -3 32 -67 3 -68 3 0 -36z"/>
<path d="M4730 395 l0 -35 -70 0 -70 0 0 -30 c0 -29 0 -29 -67 -32 l-68 -3 0
-40 0 -40 70 0 70 0 3 33 3 34 65 -4 64 -3 0 33 0 32 69 0 70 0 3 -32 c3 -28
7 -32 33 -33 108 -4 105 -3 105 -35 l0 -30 70 0 70 0 0 45 0 45 -70 0 -70 0 0
30 0 30 -70 0 -70 0 0 35 0 35 -70 0 -70 0 0 -35z"/>
<path d="M5810 395 l0 -35 -70 0 -70 0 0 -30 0 -30 -70 0 -70 0 0 -45 0 -45
70 0 70 0 0 30 0 30 70 0 70 0 0 35 0 35 70 0 70 0 0 -35 0 -35 71 0 70 0 -3
-27 -3 -28 70 0 70 0 0 40 0 40 -67 3 c-68 3 -68 3 -68 32 l0 30 -69 0 -70 0
-3 33 -3 32 -67 3 -68 3 0 -36z"/>
<path d="M6870 385 l0 -35 -70 0 -70 0 0 -30 0 -30 -70 0 -70 0 0 -40 0 -40
70 0 70 0 0 30 0 30 70 0 70 0 0 29 c0 26 4 30 33 33 17 2 49 1 70 -1 33 -3
37 -6 37 -32 l0 -29 70 0 70 0 0 -30 0 -30 70 0 70 0 0 40 0 40 -70 0 -70 0 0
30 0 30 -70 0 -70 0 0 35 0 35 -70 0 -70 0 0 -35z"/>
<path d="M7930 390 c0 -27 -3 -30 -32 -31 -106 -3 -103 -1 -106 -37 l-3 -34
-65 4 -64 3 0 -42 0 -43 70 0 70 0 0 30 0 30 65 0 65 0 0 35 0 35 70 0 70 0 0
-35 0 -35 70 0 70 0 0 -30 0 -30 70 0 70 0 0 40 0 40 -70 0 -70 0 0 29 c0 28
-1 29 -70 35 -69 7 -70 8 -70 37 l0 29 -70 0 -70 0 0 -30z"/>
<path d="M9000 385 l0 -35 -70 0 -70 0 0 -30 0 -30 -68 0 -68 0 4 -40 4 -40
69 0 69 0 0 30 0 30 65 0 65 0 0 29 c0 26 4 30 33 33 17 2 49 1 70 -1 33 -3
37 -6 37 -32 l0 -29 70 0 70 0 0 -30 0 -30 70 0 70 0 0 40 0 40 -70 0 -70 0 0
30 0 30 -70 0 -70 0 0 35 0 35 -70 0 -70 0 0 -35z"/>
<path d="M10060 388 l0 -33 -67 0 -68 0 0 -30 -1 -30 -67 0 -67 0 0 -42 0 -43
70 0 70 0 0 30 c0 29 0 29 68 32 l67 3 0 30 1 30 67 3 67 3 0 -36 0 -35 70 0
70 0 0 -30 0 -30 70 0 70 0 0 40 0 40 -70 0 -70 0 0 29 c0 27 -2 28 -61 35
-34 3 -65 3 -70 0 -5 -3 -9 11 -9 30 l0 36 -70 0 -70 0 0 -32z"/>
<path d="M11130 387 l0 -32 -64 3 -65 3 -3 -33 -3 -33 -67 -3 -68 -3 0 -39 0
-40 70 0 70 0 0 30 0 30 70 0 70 0 0 35 0 35 65 0 65 0 0 -35 0 -35 70 0 70 0
0 -30 0 -30 70 0 70 0 0 40 0 40 -70 0 -70 0 0 33 0 32 -68 1 -67 1 -3 31 -3
32 -70 0 -69 0 0 -33z"/>
<path d="M12210 385 l0 -35 -70 0 -70 0 0 -30 0 -30 -65 0 -65 0 0 -40 0 -40
70 0 70 0 0 30 0 30 65 0 65 0 0 30 0 30 70 0 70 0 0 -30 0 -30 70 0 70 0 0
-30 0 -30 70 0 70 0 0 40 0 40 -70 0 -70 0 0 30 0 30 -70 0 -70 0 0 35 0 35
-70 0 -70 0 0 -35z"/>
<path d="M467 244 c-4 -4 -7 -20 -7 -36 0 -28 0 -28 -65 -28 l-65 0 0 -45 0
-45 65 0 65 0 0 -40 0 -40 75 0 75 0 0 40 0 40 65 0 65 0 0 40 0 40 -64 0 -65
0 -3 38 -3 37 -65 3 c-36 2 -69 0 -73 -4z"/>
<path d="M1530 215 l0 -35 -70 0 -70 0 0 -45 0 -45 70 0 70 0 0 -40 0 -40 70
0 70 0 0 40 0 40 70 0 70 0 0 39 0 38 -61 7 c-34 3 -65 3 -70 0 -5 -3 -9 13
-9 35 l0 41 -70 0 -70 0 0 -35z"/>
<path d="M2597 244 c-4 -4 -7 -20 -7 -36 0 -28 0 -28 -65 -28 l-65 0 0 -45 0
-45 65 0 65 0 0 -39 0 -38 65 -7 c36 -4 70 -4 75 -1 6 4 10 24 10 46 l0 39 65
0 65 0 0 40 0 39 -67 3 -67 3 -1 35 0 35 -65 3 c-36 2 -69 0 -73 -4z"/>
<path d="M3660 215 l0 -35 -70 0 -70 0 0 -45 0 -45 70 0 70 0 0 -40 0 -40 70
0 70 0 0 40 0 40 70 0 70 0 0 39 0 38 -61 7 c-34 3 -65 3 -70 0 -5 -3 -9 13
-9 35 l0 41 -70 0 -70 0 0 -35z"/>
<path d="M4730 215 l0 -35 -70 0 -70 0 0 -45 0 -45 70 0 70 0 0 -40 0 -40 70
0 70 0 0 40 0 40 70 0 70 0 0 40 0 40 -42 2 c-24 1 -54 2 -68 3 -21 0 -25 6
-28 38 l-3 37 -70 0 -69 0 0 -35z"/>
<path d="M5810 215 l0 -35 -70 0 -70 0 0 -45 0 -45 70 0 70 0 0 -40 0 -40 70
0 70 0 0 40 0 40 70 0 70 0 0 40 0 40 -69 0 -70 0 -3 38 -3 37 -67 3 -68 3 0
-36z"/>
<path d="M7934 241 c-2 -2 -4 -19 -4 -38 l0 -33 -70 0 -70 0 0 -40 0 -40 70 0
70 0 0 -45 0 -45 70 0 70 0 0 45 0 45 70 0 70 0 0 40 0 40 -70 0 -70 0 0 34 0
34 -66 4 c-36 1 -68 1 -70 -1z"/>
<path d="M11134 241 c-2 -2 -4 -19 -4 -38 l0 -33 -70 0 -70 0 0 -40 0 -40 70
0 70 0 0 -45 0 -45 69 0 70 0 3 43 3 42 68 0 67 0 0 43 0 42 -71 0 -71 0 4 36
3 36 -69 2 c-37 0 -70 -1 -72 -3z"/>
<path d="M6870 205 l0 -35 -70 0 -70 0 0 -40 0 -40 70 0 70 0 0 -45 0 -45 70
0 70 0 0 40 0 39 68 3 67 3 3 43 3 42 -70 0 -71 0 0 35 0 35 -70 0 -70 0 0
-35z"/>
<path d="M9000 205 l0 -35 -70 0 -70 0 0 -40 0 -40 70 0 70 0 0 -45 0 -45 70
0 70 0 0 40 0 40 70 0 70 0 0 45 0 45 -70 0 -70 0 0 35 0 35 -70 0 -70 0 0
-35z"/>
<path d="M10060 205 l0 -35 -70 0 -70 0 0 -40 0 -40 70 0 70 0 0 -45 0 -45 70
0 70 0 0 45 0 45 70 0 70 0 0 40 0 40 -70 0 -70 0 0 35 0 35 -70 0 -70 0 0
-35z"/>
<path d="M12210 205 l0 -35 -70 0 -70 0 0 -40 0 -40 70 0 70 0 0 -45 0 -45 69
0 70 0 3 43 3 42 68 -3 67 -3 0 45 0 46 -70 0 -70 0 0 35 0 35 -70 0 -70 0 0
-35z"/>
</g>
</svg>
